<?xml version="1.0" encoding="UTF-8"?>
<!DOCTYPE svg PUBLIC "-//W3C//DTD SVG 1.1//EN" "http://www.w3.org/Graphics/SVG/1.1/DTD/svg11.dtd">
<!-- Creator: CorelDRAW -->
<svg xmlns="http://www.w3.org/2000/svg" xml:space="preserve" width="62.8803mm" height="37.1307mm" version="1.1" style="shape-rendering:geometricPrecision; text-rendering:geometricPrecision; image-rendering:optimizeQuality; fill-rule:evenodd; clip-rule:evenodd"
viewBox="0 0 5658.63 3341.41"
 xmlns:xlink="http://www.w3.org/1999/xlink"
 xmlns:xodm="http://www.corel.com/coreldraw/odm/2003">
 <defs>
  <style type="text/css">
   <![CDATA[
    .fil1 {fill:#F18B30}
    .fil3 {fill:#F18B30}
    .fil0 {fill:#0D68A0}
    .fil2 {fill:#fff}
   ]]>
  </style>
 </defs>
 <g id="Layer_x0020_1">
  <metadata id="CorelCorpID_0Corel-Layer"/>
  <g id="_2388489544224">
   <g>
    <path class="fil0" d="M3014.61 1530.55c0,0 -186.12,-40.7 -226.84,-155.1 -40.72,-114.4 -453.72,-925.23 -453.72,-925.23l-663.76 969.94 519.12 -2.95 277.25 -433.58c0,0 30.22,-43.04 72.3,64.08 42.08,107.12 227.41,491.02 227.41,491.02l248.24 -8.19z"/>
    <path class="fil1" d="M3192.42 1371.45l-158.37 -66.93 -504.49 -1002.44 120.95 0 273.12 604.74 36.12 0 365.07 -543c0,0 25.22,-42.68 -29.11,-38.8 -54.34,3.88 -83.62,2.18 -83.62,2.18l0 -26.84 574.23 -300.35 198.4 319.63 0 33.76 -146.12 0 -646.19 1018.05z"/>
    <path class="fil2" d="M45.6 2732.25l0 -757.82c0,0 17.35,-61.24 84.13,-63.81 66.78,-2.57 105.31,5.13 138.7,64.21 33.4,59.08 210.62,557.36 210.62,557.36l46.23 0 0 -572.77c0,0 7.71,-53.95 71.92,-56.51 64.21,-2.56 51.37,95.04 51.37,95.04l2.57 719.19c0,0 -143.84,123.29 -205.48,7.7 -61.64,-115.58 -61.64,-115.58 -61.64,-115.58l-174.61 -477.95 -41.33 0.75 13.03 587.65c0,0 -18.12,63.47 -68.51,65.14 -50.39,1.67 -67,-52.59 -67,-52.59z"/>
    <path class="fil2" d="M1277.83 1949.74l0 614.67c0,0 5.15,108.01 -79.72,105.44 -84.87,-2.56 -195.46,0 -195.46,0 0,0 -54.01,-15.42 -56.59,-92.58 -2.57,-77.16 5.15,-622.39 5.15,-622.39 0,0 -33.43,-48.86 -74.58,-48.86 -41.15,0 -64.36,15.3 -66.58,58.66 -2.22,43.37 -2.22,43.37 -2.22,43.37l0 613.56c0,0 21.75,140.93 149.25,149.88 127.5,8.95 127.5,8.95 127.5,8.95l163.3 -4.47c0,0 125.27,-33.55 140.93,-114.08 15.66,-80.53 0,-728.67 0,-728.67 0,0 -82.01,-65.09 -110.96,16.53z"/>
    <path class="fil2" d="M1519.79 1915.46l532.53 0c0,0 56.22,56.23 2.96,106.51l-189.34 0 0 701.16c0,0 -30.06,60.73 -70.98,60.73 -40.93,0 -71.63,-56.28 -71.63,-56.28l0 -704.7 -192.39 0c0,0 -107.37,-53.89 -11.14,-107.43z"/>
    <path class="fil2" d="M2189.5 2742.89l0 -765.53c0,0 -3.01,-69.78 66.4,-68.09 69.41,1.69 358.86,1.69 358.86,1.69l116.8 89.71 -6.95 274.3c0,0 -67.72,27.97 -19.14,63.3 48.58,35.33 48.58,35.33 48.58,35.33l4.42 45.63 2.56 242.39c0,0 -71.1,96.51 -143.9,103.27 -72.8,6.77 -72.8,6.77 -72.8,6.77l-152.37 0c0,0 -49.1,-74.49 0,-96.5l193 -3.38c0,0 57.57,-42.33 57.57,-69.42 0,-27.09 0,-152.37 0,-152.37 0,0 -42.33,-77.88 -81.27,-77.88 -38.94,0 -39.54,39.61 -89.19,35.16 -49.65,-4.45 -107.93,-76.55 -69.19,-121.18 38.73,-44.63 75.77,-53.05 99.35,-35.37 23.58,17.68 87.56,26.95 101.88,12.63 14.32,-14.32 14.32,-14.32 14.32,-14.32l0 -186.11 -43.65 -43.65 -264.55 0 0 715.06c0,0 -47.71,109.63 -120.72,8.54z"/>
    <path class="fil2" d="M3410.33 2017.94l0 -109.64 -453.34 0c0,0 -35.56,11.84 -35.56,71.11 0,59.27 11.85,717.07 11.85,717.07 0,0 -13.77,73.79 73.15,73.79 86.92,0 397.78,0 397.78,0 0,0 25.04,-11.79 25.04,-38.31 0,-26.52 0,-26.52 0,-26.52 0,0 -7.38,-26.51 -39.78,-26.51 -32.41,0 -337.37,0 -337.37,0l0 -661.38 358.23 0.38z"/>
    <circle class="fil2" cx="3239.26" cy="2323.33" r="81.04"/>
    <path class="fil2" d="M3565.81 1907.81l0 819.56c0,0 7.81,47.04 43.69,52.16 35.88,5.12 66.64,-34.6 66.64,-34.6l0 -725.35 259.87 0 34.57 2.57 9.5 37.03 0 215.25c0,0 -6.78,25.41 -49.15,32.2 -42.38,6.79 -166.1,-5.08 -181.36,18.65 -15.25,23.73 -15.24,79.66 25.43,77.97 40.68,-1.69 40.68,-1.69 40.68,-1.69 0,0 42.37,0 55.93,25.42 13.56,25.42 13.56,25.42 13.56,25.42l208.5 335.09c0,0 91.92,-31.38 85.18,-67.25 -6.73,-35.87 -170.37,-280.21 -170.37,-280.21 0,0 -24.66,-40.36 20.18,-56.05 93.78,-32.81 90.04,-170.45 81.5,-247.35 0,0 3.19,-211.38 -152.45,-220.08 -162.42,-7.73 -391.89,-8.74 -391.89,-8.74z"/>
    <path class="fil2" d="M4283.13 1907.81l0 819.56c0,0 7.81,47.04 43.69,52.16 35.88,5.12 66.64,-34.6 66.64,-34.6l0 -725.35 259.87 0 34.57 2.57 9.5 37.03 0 215.25c0,0 -6.78,25.41 -49.15,32.2 -42.38,6.79 -166.1,-5.08 -181.36,18.65 -15.25,23.73 -15.24,79.66 25.43,77.97 40.68,-1.69 40.68,-1.69 40.68,-1.69 0,0 42.37,0 55.93,25.42 13.56,25.42 13.56,25.42 13.56,25.42l208.5 335.09c0,0 91.92,-31.38 85.18,-67.25 -6.73,-35.87 -170.37,-280.21 -170.37,-280.21 0,0 -24.66,-40.36 20.18,-56.05 93.78,-32.81 90.04,-170.45 81.5,-247.35 0,0 3.19,-211.38 -152.45,-220.08 -162.42,-7.73 -391.89,-8.74 -391.89,-8.74z"/>
    <path class="fil2" d="M5050.72 1897.36l201.21 381.78 203.79 -335.35c0,0 10.32,-59.34 67.07,-46.44 56.75,12.9 69.63,54.17 38.69,113.5 -30.95,59.33 -227,420.47 -227,420.47l0 291.5c0,0 -15.47,64.5 -64.49,69.65 -49.02,5.16 -74.81,-79.97 -74.81,-79.97l-5.17 -309.55 -247.64 -435.95c0,0 2.58,-82.55 108.34,-69.65z"/>
   </g>
   <path class="fil3" d="M-0 3336.5l25.99 0 0 -132.98 128.57 0 0 -24 -128.57 0 0 -101.61 148.47 0 0 -24 -174.46 0 0 282.59zm220.72 -137.41c0,24.68 5.01,48.41 15.23,70.89 9.84,21.63 24.41,39.26 44.29,52.28 20.09,13.16 42.37,19.14 66.36,19.14 22.9,0 44.2,-5.8 63.97,-17.37 20.54,-12.02 35.33,-29.55 45.59,-50.95 11.61,-24.24 16.32,-50.65 16.32,-77.41 0,-26.31 -4.46,-52.32 -15.53,-76.32 -9.92,-21.49 -24.47,-39.11 -44.49,-51.81 -20,-12.69 -41.97,-18.56 -65.65,-18.56 -36.12,0 -66.61,12.35 -90.7,39.45 -27.07,30.44 -35.38,70.95 -35.38,110.64zm27.13 0.68c0,-32.95 5,-73.14 29.24,-97.81 19.18,-19.52 42.48,-29.79 69.89,-29.79 18.8,0 36.14,5.07 51.74,15.55 16.06,10.79 27.4,25.82 34.92,43.53 8.59,20.25 11.71,42.48 11.71,64.35 0,31.98 -6.19,65.63 -27.67,90.54 -18.72,21.72 -42.6,32.49 -71.26,32.49 -28.36,0 -52.01,-10.86 -70.67,-32.19 -21.07,-24.07 -27.89,-55.41 -27.89,-86.67zm270.51 -0.68c0,24.68 5.01,48.41 15.23,70.89 9.83,21.62 24.41,39.27 44.28,52.28 20.1,13.16 42.37,19.14 66.37,19.14 22.89,0 44.19,-5.8 63.96,-17.37 20.54,-12.02 35.33,-29.54 45.59,-50.95 11.62,-24.25 16.32,-50.64 16.32,-77.41 0,-26.31 -4.46,-52.32 -15.53,-76.32 -9.92,-21.5 -24.48,-39.11 -44.5,-51.81 -20,-12.69 -41.97,-18.56 -65.65,-18.56 -36.12,0 -66.62,12.35 -90.7,39.45 -27.07,30.44 -35.37,70.95 -35.37,110.64zm27.13 0.68c0,-32.94 4.99,-73.14 29.23,-97.81 19.19,-19.53 42.48,-29.79 69.9,-29.79 18.8,0 36.14,5.06 51.74,15.55 16.04,10.77 27.39,25.81 34.91,43.53 8.59,20.25 11.71,42.48 11.71,64.35 0,31.98 -6.19,65.63 -27.66,90.54 -18.72,21.72 -42.61,32.49 -71.27,32.49 -28.36,0 -52.01,-10.86 -70.67,-32.19 -21.07,-24.07 -27.88,-55.42 -27.88,-86.67zm281.61 136.72l93.67 0c14.26,0 28.91,-1.2 42.75,-4.81 11.01,-2.88 21.67,-7.31 30.96,-13.94 9.45,-6.74 17.24,-15.65 23.72,-25.22 8.34,-12.31 13.98,-26.93 18,-41.18 5.25,-18.63 7.06,-38.42 7.06,-57.72 0,-22.94 -2.82,-46.26 -10.47,-67.97 -6.51,-18.43 -16.49,-34.77 -31,-47.94 -10.88,-9.87 -23.71,-16.28 -37.95,-19.82 -14.54,-3.61 -32.6,-4 -47.53,-4l-89.2 0 0 282.59zm25.98 -24l0 -234.59 62.65 0c14.72,0 35.12,0.69 48.86,6.4 16.38,6.8 28.16,20.24 36.76,35.37 12.03,21.18 14.77,49.43 14.77,73.34 0,19.28 -1.75,39.55 -7.43,58.05 -4.37,14.2 -10.98,28.21 -21.18,39.17 -7.29,7.83 -16.63,13.05 -26.64,16.57 -13.45,4.74 -30.02,5.69 -44.19,5.69l-63.61 0zm356.67 24l25.98 0 0 -119.47 75.47 0c25.16,0 58.9,-3.6 76.49,-24.05 14.69,-17.05 20.99,-37.3 20.99,-59.7 0,-13.08 -2.34,-25.82 -7.81,-37.72 -4.71,-10.23 -11.22,-19.49 -20.36,-26.22 -9.31,-6.86 -20.45,-10.65 -31.73,-12.72 -12.97,-2.38 -27.62,-2.71 -40.77,-2.71l-98.25 0 0 282.59zm25.98 -143.48l0 -115.11 75.27 0c10.18,0 25.47,-0.04 35.25,2.8 10.94,3.17 19.48,9.98 25.77,19.43 6.82,10.27 9.54,22.07 9.54,34.3 0,16.29 -4.28,31.73 -16.36,43.18 -13.58,12.88 -35.65,15.4 -53.49,15.4l-75.98 0zm230.01 143.48l25.98 0 0 -130.12 47.15 0c6.65,0 14.73,0.08 21.37,1.51 6.63,1.77 12.72,4.73 18.25,8.55 7.51,5.18 14.3,13.46 19.66,20.77 9.51,12.95 18.16,27.05 26.36,40.86l34.72 58.43 33.22 0 -42.74 -71.96c-8.12,-13.66 -17.71,-26.84 -29.13,-37.94 -5.69,-5.53 -13.59,-10.11 -20.61,-13.69l-14.47 -7.37 16.06 -2.38c20.07,-2.97 41.27,-9.75 55.09,-25.44 12.31,-13.97 17.58,-30.61 17.58,-49.15 0,-14.76 -3.35,-28.72 -10.67,-41.55 -6.58,-11.52 -15.58,-20.5 -27.9,-25.6 -15.52,-6.42 -37.09,-7.51 -53.7,-7.51l-116.24 0 0 282.59zm25.98 -153.3l0 -107.33 91.79 0c16.62,0 35.44,2.85 47.96,14.79 10.74,10.22 15.64,23.24 15.64,37.98 0,10.37 -2.7,20 -8,28.9 -5.55,9.32 -13.64,15.81 -23.73,19.76 -12.32,4.83 -27.56,5.89 -40.68,5.89l-82.99 0zm238.49 15.89c0,24.68 5.01,48.41 15.23,70.89 9.84,21.63 24.41,39.26 44.29,52.28 20.09,13.16 42.37,19.14 66.36,19.14 22.89,0 44.19,-5.8 63.96,-17.37 20.54,-12.02 35.33,-29.54 45.59,-50.95 11.62,-24.25 16.32,-50.64 16.32,-77.41 0,-26.31 -4.46,-52.32 -15.53,-76.32 -9.92,-21.5 -24.48,-39.11 -44.5,-51.81 -20,-12.69 -41.97,-18.56 -65.65,-18.56 -36.12,0 -66.62,12.35 -90.7,39.45 -27.06,30.44 -35.37,70.95 -35.37,110.64zm27.13 0.68c0,-32.94 4.99,-73.14 29.23,-97.81 19.19,-19.53 42.48,-29.79 69.9,-29.79 18.8,0 36.14,5.06 51.74,15.55 16.04,10.77 27.38,25.81 34.91,43.53 8.6,20.25 11.72,42.48 11.72,64.35 0,31.98 -6.2,65.63 -27.67,90.54 -18.72,21.72 -42.61,32.49 -71.27,32.49 -28.35,0 -52.01,-10.86 -70.67,-32.19 -21.07,-24.07 -27.88,-55.42 -27.88,-86.67zm475.47 45.56c-4.72,20 -13.35,39.32 -28.96,53.23 -15.51,13.84 -34.12,20.07 -54.85,20.07 -17.81,0 -34.21,-4.96 -49.17,-14.61 -16.37,-10.55 -27.03,-26.1 -33.63,-44.25 -7.74,-21.28 -10.46,-44.42 -10.46,-66.96 0,-19.68 2.94,-39.05 8.84,-57.82 5.8,-18.47 16.07,-34.19 31.52,-46 16.24,-12.41 35.63,-17.22 55.83,-17.22 17.85,0 34.75,4.42 48.79,15.75 13.77,11.1 22.34,27.66 27.83,44.31l25.64 -6.49c-6.66,-21.58 -17.88,-40.77 -35.81,-55.11 -19.06,-15.26 -41.69,-21.24 -65.83,-21.24 -22.74,0 -44.08,5.44 -63.69,16.95 -19.99,11.73 -34.44,28.68 -44.46,49.52 -11.6,24.15 -15.82,50.93 -15.82,77.54 0,26.34 4.44,52.06 14.13,76.58 8.45,21.39 21.23,40.19 40.28,53.44 20.11,13.98 44.91,18.38 68.99,18.38 25.73,0 49.18,-7.08 68.97,-23.87 19.92,-16.9 31.44,-40.31 38.02,-65.14l-26.18 -7.07zm83.24 91.16l193.96 0 0 -24 -167.98 0 0 -110.2 151.15 0 0 -24 -151.15 0 0 -100.38 161.47 0 0 -24 -187.45 0 0 282.59zm242.81 -84.23c1.08,16.1 5.53,31.28 14.07,45.17 9.05,14.75 21.37,25.61 37.09,32.86 18.47,8.5 39.87,11.12 60.01,11.12 17.55,0 34.64,-3.19 50.47,-10.92 14.11,-6.9 25.59,-16.72 33.76,-30.16 7.71,-12.72 11.74,-26.39 11.74,-41.29 0,-13.87 -3.13,-26.99 -10.56,-38.77 -7.92,-12.54 -20,-21.45 -33.17,-27.92 -16.6,-8.14 -41.59,-13.95 -59.58,-18.3 -14.8,-3.58 -45.83,-11.39 -57.04,-22.17 -8.33,-8.04 -12.23,-18.17 -12.23,-29.71 0,-14.2 6.15,-25.85 16.86,-35.03 13.55,-11.63 34.15,-14.14 51.33,-14.14 17.91,0 37.28,3.28 51.19,15.47 11.94,10.47 17.76,24.9 20.05,40.2l24.81 -2.04c-1.15,-13.77 -5.08,-26.8 -12.39,-38.7 -8.07,-13.15 -19.45,-22.54 -33.49,-28.88 -16.18,-7.3 -33.9,-10.04 -51.56,-10.04 -16.6,0 -32.93,2.83 -48.16,9.58 -13.41,5.94 -24.39,14.71 -32.05,27.28 -7.29,11.94 -11.04,24.84 -11.04,38.83 0,12.05 2.77,23.46 8.91,33.85 6.51,11.01 16.2,19.23 27.24,25.48 14.14,7.99 35.92,13.73 51.6,17.76 15.45,3.98 34.75,8.44 49.47,14.48 10.04,4.12 20.41,10.05 26.91,19.01 5.82,8.01 8.46,17.16 8.46,27.04 0,10.17 -3.01,19.55 -8.67,27.99 -6.31,9.4 -15.57,15.78 -25.91,20.09 -12.2,5.11 -25.43,7.02 -38.6,7.02 -15.28,0 -30.33,-2.71 -44.22,-9.22 -11.96,-5.61 -22.65,-13.55 -29.75,-24.86 -6.29,-10.02 -9.68,-21.7 -11.4,-33.39l-24.14 2.32zm255.22 0c1.08,16.1 5.53,31.28 14.07,45.17 9.05,14.75 21.37,25.61 37.09,32.86 18.47,8.5 39.87,11.12 60.01,11.12 17.55,0 34.64,-3.19 50.47,-10.92 14.11,-6.9 25.59,-16.72 33.76,-30.16 7.71,-12.72 11.74,-26.39 11.74,-41.29 0,-13.87 -3.13,-26.99 -10.56,-38.77 -7.91,-12.54 -20,-21.46 -33.16,-27.92 -16.61,-8.14 -41.6,-13.94 -59.59,-18.3 -14.8,-3.58 -45.83,-11.39 -57.04,-22.17 -8.33,-8.04 -12.23,-18.17 -12.23,-29.71 0,-14.2 6.15,-25.85 16.86,-35.03 13.55,-11.63 34.15,-14.14 51.33,-14.14 17.91,0 37.28,3.28 51.19,15.47 11.94,10.47 17.76,24.9 20.06,40.2l24.81 -2.04c-1.16,-13.76 -5.08,-26.8 -12.4,-38.7 -8.07,-13.15 -19.44,-22.54 -33.49,-28.88 -16.19,-7.3 -33.9,-10.04 -51.56,-10.04 -16.6,0 -32.93,2.83 -48.16,9.58 -13.41,5.94 -24.39,14.71 -32.05,27.28 -7.29,11.94 -11.04,24.84 -11.04,38.83 0,12.05 2.77,23.46 8.91,33.85 6.51,11.01 16.2,19.23 27.24,25.48 14.14,7.99 35.92,13.73 51.6,17.76 15.45,3.98 34.75,8.44 49.47,14.48 10.04,4.12 20.41,10.05 26.91,19.01 5.82,8.01 8.46,17.16 8.46,27.04 0,10.17 -3.01,19.55 -8.67,27.99 -6.31,9.4 -15.57,15.78 -25.91,20.09 -12.2,5.11 -25.42,7.02 -38.6,7.02 -15.28,0 -30.33,-2.71 -44.22,-9.22 -11.96,-5.61 -22.65,-13.55 -29.75,-24.86 -6.29,-10.02 -9.68,-21.7 -11.4,-33.39l-24.14 2.32zm255.76 -53.18c0,24.68 5.01,48.41 15.23,70.89 9.84,21.63 24.41,39.26 44.29,52.28 20.09,13.16 42.37,19.14 66.36,19.14 22.89,0 44.19,-5.8 63.96,-17.37 20.54,-12.02 35.34,-29.54 45.6,-50.95 11.61,-24.24 16.32,-50.65 16.32,-77.41 0,-26.31 -4.46,-52.32 -15.53,-76.32 -9.92,-21.49 -24.47,-39.11 -44.49,-51.81 -20,-12.69 -41.97,-18.56 -65.65,-18.56 -36.12,0 -66.61,12.35 -90.7,39.45 -27.07,30.44 -35.38,70.95 -35.38,110.64zm27.13 0.68c0,-32.95 5,-73.14 29.24,-97.81 19.19,-19.52 42.48,-29.79 69.89,-29.79 18.8,0 36.14,5.07 51.74,15.55 16.06,10.79 27.4,25.82 34.92,43.53 8.59,20.25 11.71,42.48 11.71,64.35 0,31.98 -6.19,65.63 -27.67,90.54 -18.72,21.71 -42.61,32.49 -71.26,32.49 -28.36,0 -52.01,-10.86 -70.67,-32.19 -21.07,-24.07 -27.89,-55.41 -27.89,-86.67zm282.37 136.72l25.98 0 0 -130.12 47.15 0c6.65,0 14.74,0.08 21.37,1.51 6.63,1.77 12.72,4.73 18.25,8.55 7.51,5.17 14.3,13.46 19.66,20.77 9.51,12.95 18.16,27.05 26.36,40.86l34.72 58.43 33.23 0 -42.74 -71.96c-8.12,-13.66 -17.71,-26.84 -29.14,-37.94 -5.69,-5.53 -13.58,-10.11 -20.61,-13.69l-14.48 -7.37 16.07 -2.38c20.08,-2.97 41.26,-9.75 55.09,-25.44 12.31,-13.97 17.58,-30.61 17.58,-49.15 0,-14.76 -3.34,-28.72 -10.66,-41.55 -6.57,-11.52 -15.58,-20.5 -27.9,-25.6 -15.52,-6.42 -37.1,-7.51 -53.71,-7.51l-116.24 0 0 282.59zm25.98 -153.3l0 -107.33 91.8 0c16.62,0 35.43,2.86 47.96,14.79 10.74,10.22 15.64,23.23 15.64,37.98 0,10.37 -2.7,20 -8,28.9 -5.55,9.31 -13.64,15.81 -23.73,19.76 -12.32,4.83 -27.56,5.89 -40.68,5.89l-82.99 0zm237.95 69.07c1.08,16.1 5.53,31.28 14.07,45.17 9.05,14.75 21.37,25.61 37.09,32.86 18.47,8.5 39.87,11.12 60.01,11.12 17.55,0 34.64,-3.19 50.47,-10.92 14.11,-6.9 25.59,-16.72 33.76,-30.16 7.71,-12.72 11.74,-26.39 11.74,-41.29 0,-13.87 -3.14,-26.99 -10.56,-38.77 -7.91,-12.54 -20,-21.46 -33.16,-27.92 -16.61,-8.14 -41.59,-13.94 -59.58,-18.3 -14.8,-3.58 -45.84,-11.39 -57.04,-22.17 -8.33,-8.04 -12.23,-18.17 -12.23,-29.71 0,-14.19 6.16,-25.85 16.86,-35.03 13.55,-11.63 34.14,-14.14 51.33,-14.14 17.92,0 37.29,3.28 51.2,15.47 11.94,10.47 17.76,24.91 20.05,40.2l24.81 -2.04c-1.16,-13.76 -5.08,-26.8 -12.4,-38.7 -8.07,-13.15 -19.44,-22.54 -33.49,-28.88 -16.19,-7.3 -33.9,-10.04 -51.56,-10.04 -16.6,0 -32.93,2.83 -48.16,9.58 -13.41,5.94 -24.38,14.71 -32.04,27.28 -7.29,11.93 -11.05,24.84 -11.05,38.83 0,12.05 2.77,23.46 8.91,33.85 6.51,11.01 16.2,19.23 27.24,25.48 14.13,7.99 35.92,13.73 51.6,17.76 15.45,3.98 34.75,8.44 49.47,14.48 10.04,4.12 20.42,10.05 26.91,19.01 5.81,8.01 8.46,17.16 8.46,27.04 0,10.17 -3.01,19.55 -8.67,27.99 -6.31,9.4 -15.57,15.78 -25.91,20.09 -12.2,5.11 -25.42,7.02 -38.6,7.02 -15.28,0 -30.34,-2.71 -44.23,-9.22 -11.94,-5.61 -22.65,-13.55 -29.74,-24.86 -6.29,-10.02 -9.68,-21.7 -11.4,-33.39l-24.14 2.32zm373.17 84.23l25.98 0 0 -119.47 75.47 0c25.17,0 58.9,-3.6 76.49,-24.05 14.69,-17.05 21,-37.3 21,-59.7 0,-13.07 -2.33,-25.82 -7.81,-37.72 -4.72,-10.24 -11.22,-19.49 -20.36,-26.22 -9.31,-6.85 -20.45,-10.65 -31.73,-12.72 -12.97,-2.38 -27.62,-2.71 -40.77,-2.71l-98.26 0 0 282.59zm25.98 -143.48l0 -115.11 75.28 0c10.18,0 25.47,-0.04 35.25,2.8 10.94,3.17 19.47,9.98 25.76,19.43 6.83,10.27 9.54,22.07 9.54,34.3 0,16.28 -4.27,31.73 -16.35,43.18 -13.58,12.89 -35.65,15.4 -53.5,15.4l-75.98 0zm305.75 143.48l30.43 0 103.05 -282.59 -25.9 0 -72.65 209.42c-5.44,15.67 -10.39,31.51 -14.61,47.55l-5.07 19.33 -4.97 -19.36c-4.11,-16.03 -9,-31.89 -14.25,-47.58l-69.99 -209.36 -28.17 0 102.11 282.59zm248.36 0l25.98 0 0 -258.59 90.31 0 0 -24 -206.6 0 0 24 90.31 0 0 258.59zm127.04 0l27.91 0 0 -30.55 -27.91 0 0 30.55zm205.74 0l160.68 0 0 -24 -134.7 0 0 -258.59 -25.98 0 0 282.59zm255.61 0l25.98 0 0 -258.59 90.31 0 0 -24 -206.59 0 0 24 90.3 0 0 258.59zm164.1 0l93.67 0c14.26,0 28.92,-1.2 42.75,-4.81 11.01,-2.87 21.67,-7.31 30.95,-13.94 9.45,-6.74 17.24,-15.65 23.72,-25.22 8.33,-12.31 13.98,-26.93 18,-41.18 5.25,-18.63 7.06,-38.42 7.06,-57.72 0,-22.94 -2.82,-46.26 -10.47,-67.97 -6.51,-18.43 -16.49,-34.77 -31,-47.94 -10.87,-9.86 -23.71,-16.28 -37.94,-19.82 -14.54,-3.62 -32.6,-4 -47.54,-4l-89.2 0 0 282.59zm25.98 -24l0 -234.59 62.65 0c14.72,0 35.12,0.69 48.86,6.4 16.38,6.8 28.16,20.24 36.76,35.37 12.03,21.18 14.78,49.43 14.78,73.34 0,19.29 -1.75,39.54 -7.44,58.05 -4.37,14.21 -10.98,28.21 -21.18,39.17 -7.28,7.83 -16.63,13.05 -26.64,16.57 -13.45,4.74 -30.02,5.69 -44.19,5.69l-63.61 0zm255.71 24l27.91 0 0 -30.55 -27.91 0 0 30.55z"/>
  </g>
 </g>
</svg>
