<?xml version="1.0" encoding="UTF-8"?>
<!DOCTYPE svg PUBLIC "-//W3C//DTD SVG 1.1//EN" "http://www.w3.org/Graphics/SVG/1.1/DTD/svg11.dtd">
<!-- Creator: CorelDRAW -->
<svg xmlns="http://www.w3.org/2000/svg" xml:space="preserve" width="61.4761mm" height="31.0335mm" version="1.1" style="shape-rendering:geometricPrecision; text-rendering:geometricPrecision; image-rendering:optimizeQuality; fill-rule:evenodd; clip-rule:evenodd"
viewBox="0 0 2010.9 1015.11"
 xmlns:xlink="http://www.w3.org/1999/xlink"
 xmlns:xodm="http://www.corel.com/coreldraw/odm/2003">
 <defs>
  <style type="text/css">
   <![CDATA[
    .fil2 {fill:#F18B30}
    .fil1 {fill:#0D68A0}
    .fil0 {fill:#fff}
   ]]>
  </style>
 </defs>
 <g id="Layer_x0020_1">
  <metadata id="CorelCorpID_0Corel-Layer"/>
  <g id="_1933504255520">
   <g>
    <path class="fil0" d="M-0 993.13l0 -275.46c0,0 6.31,-22.26 30.58,-23.19 24.27,-0.94 38.28,1.86 50.42,23.34 12.14,21.47 76.56,202.59 76.56,202.59l16.8 0 0 -208.19c0,0 2.8,-19.61 26.14,-20.54 23.34,-0.93 18.67,34.55 18.67,34.55l0.94 261.41c0,0 -52.28,44.81 -74.69,2.8 -22.41,-42.01 -22.41,-42.01 -22.41,-42.01l-63.47 -173.73 -15.02 0.27 4.74 213.6c0,0 -6.59,23.07 -24.9,23.68 -18.31,0.61 -24.35,-19.12 -24.35,-19.12z"/>
    <g>
     <path class="fil1" d="M1079.19 556.33c0,0 -67.65,-14.79 -82.45,-56.38 -14.8,-41.58 -164.92,-336.31 -164.92,-336.31l-241.27 352.56 188.69 -1.07 100.78 -157.6c0,0 10.98,-15.65 26.28,23.29 15.3,38.94 82.66,178.48 82.66,178.48l90.23 -2.98z"/>
     <path class="fil2" d="M1143.82 498.5l-57.57 -24.33 -183.37 -364.37 43.96 0 99.28 219.82 13.13 0 132.7 -197.37c0,0 9.17,-15.51 -10.58,-14.1 -19.75,1.41 -30.39,0.79 -30.39,0.79l0 -9.76 208.72 -109.17 72.12 116.18 0 12.27 -53.11 0 -234.88 370.05z"/>
     <path class="fil0" d="M447.9 708.7l0 223.42c0,0 1.87,39.26 -28.98,38.33 -30.85,-0.93 -71.05,0 -71.05,0 0,0 -19.63,-5.61 -20.57,-33.65 -0.94,-28.05 1.87,-226.23 1.87,-226.23 0,0 -12.15,-17.76 -27.11,-17.76 -14.96,0 -23.39,5.56 -24.2,21.32 -0.81,15.76 -0.81,15.76 -0.81,15.76l0 223.02c0,0 7.91,51.23 54.25,54.48 46.34,3.25 46.34,3.25 46.34,3.25l59.36 -1.63c0,0 45.53,-12.19 51.22,-41.47 5.69,-29.27 0,-264.86 0,-264.86 0,0 -29.81,-23.66 -40.33,6.01z"/>
     <path class="fil0" d="M535.85 696.24l193.57 0c0,0 20.43,20.44 1.08,38.72l-68.82 0 0 254.86c0,0 -10.93,22.08 -25.8,22.08 -14.88,0 -26.04,-20.46 -26.04,-20.46l0 -256.15 -69.93 0c0,0 -39.03,-19.59 -4.05,-39.05z"/>
     <path class="fil0" d="M779.28 997l0 -278.26c0,0 -1.09,-25.36 24.14,-24.75 25.23,0.61 130.44,0.61 130.44,0.61l42.45 32.61 -2.53 99.7c0,0 -24.61,10.17 -6.96,23.01 17.66,12.84 17.66,12.84 17.66,12.84l1.61 16.59 0.93 88.1c0,0 -25.84,35.08 -52.31,37.54 -26.46,2.46 -26.46,2.46 -26.46,2.46l-55.38 0c0,0 -17.85,-27.07 0,-35.08l70.15 -1.23c0,0 20.92,-15.39 20.92,-25.23 0,-9.85 0,-55.38 0,-55.38 0,0 -15.39,-28.31 -29.54,-28.31 -14.15,0 -14.37,14.4 -32.42,12.78 -18.05,-1.62 -39.23,-27.83 -25.15,-44.05 14.08,-16.22 27.54,-19.28 36.11,-12.86 8.57,6.43 31.83,9.8 37.03,4.59 5.2,-5.2 5.2,-5.2 5.2,-5.2l0 -67.65 -15.86 -15.86 -96.16 0 0 259.91c0,0 -17.34,39.85 -43.88,3.1z"/>
     <path class="fil0" d="M1223.03 733.49l0 -39.85 -164.78 0c0,0 -12.92,4.3 -12.92,25.85 0,21.54 4.31,260.64 4.31,260.64 0,0 -5,26.82 26.59,26.82 31.59,0 144.59,0 144.59,0 0,0 9.1,-4.29 9.1,-13.92 0,-9.64 0,-9.64 0,-9.64 0,0 -2.68,-9.64 -14.46,-9.64 -11.78,0 -122.63,0 -122.63,0l0 -240.4 130.21 0.14z"/>
     <circle class="fil0" cx="1160.85" cy="844.5" r="29.46"/>
     <path class="fil0" d="M1279.55 693.46l0 297.9c0,0 2.84,17.1 15.88,18.96 13.04,1.86 24.22,-12.58 24.22,-12.58l0 -263.65 94.46 0 12.56 0.94 3.45 13.46 0 78.24c0,0 -2.46,9.24 -17.87,11.7 -15.4,2.47 -60.38,-1.85 -65.92,6.78 -5.54,8.63 -5.54,28.96 9.24,28.34 14.79,-0.61 14.79,-0.61 14.79,-0.61 0,0 15.4,0 20.33,9.24 4.93,9.24 4.93,9.24 4.93,9.24l75.79 121.8c0,0 33.41,-11.41 30.96,-24.44 -2.45,-13.04 -61.93,-101.85 -61.93,-101.85 0,0 -8.96,-14.67 7.33,-20.37 34.09,-11.93 32.73,-61.96 29.62,-89.91 0,0 1.16,-76.83 -55.41,-80 -59.04,-2.81 -142.45,-3.18 -142.45,-3.18z"/>
     <path class="fil0" d="M1540.28 693.46l0 297.9c0,0 2.84,17.1 15.88,18.96 13.04,1.86 24.22,-12.58 24.22,-12.58l0 -263.65 94.46 0 12.56 0.94 3.45 13.46 0 78.24c0,0 -2.46,9.24 -17.87,11.7 -15.4,2.47 -60.38,-1.85 -65.92,6.78 -5.54,8.63 -5.54,28.96 9.24,28.34 14.79,-0.61 14.79,-0.61 14.79,-0.61 0,0 15.4,0 20.33,9.24 4.93,9.24 4.93,9.24 4.93,9.24l75.79 121.8c0,0 33.41,-11.41 30.96,-24.44 -2.45,-13.04 -61.93,-101.85 -61.93,-101.85 0,0 -8.96,-14.67 7.33,-20.37 34.09,-11.93 32.73,-61.96 29.62,-89.91 0,0 1.16,-76.83 -55.41,-80 -59.04,-2.81 -142.45,-3.18 -142.45,-3.18z"/>
    </g>
    <path class="fil0" d="M1819.29 689.66l73.14 138.77 74.08 -121.89c0,0 3.75,-21.57 24.38,-16.88 20.63,4.69 25.31,19.69 14.06,41.26 -11.25,21.57 -82.51,152.84 -82.51,152.84l0 105.95c0,0 -5.62,23.44 -23.44,25.32 -17.82,1.87 -27.19,-29.07 -27.19,-29.07l-1.88 -112.52 -90.01 -158.46c0,0 0.94,-30.01 39.38,-25.32z"/>
   </g>
  </g>
 </g>
</svg>
